# xmcd CD database file
#
# Track frame offsets:
#	150
#	12460
#	26155
#	40417
#	52153
#	63875
#	76620
#	91324
#	104939
#	117862
#
# Disc length: 1760 seconds
#
# Revision: 2
# Processed by: cddbd v1.5.1PL2 Copyright (c) Steve Scherf et al.
# Submitted via: CDex 1.51
#
DISCID=8306de0a
DTITLE=Glen Campbell - Classics Collection
DYEAR=1990
DGENRE=Country
TTITLE0=Galveston
TTITLE1=Gentle On My Mind
TTITLE2=Wichita Lineman
TTITLE3=Dreams Of The Everyday Housewife
TTITLE4=Hey Little One
TTITLE5=By The Time I Get To Phoenix
TTITLE6=Rhinestone Cowboy
TTITLE7=Southern Nights
TTITLE8=Bonaparte's Retreat
TTITLE9=Country Boy (You Got Your Feet In L.A.)
EXTD=YEAR: 1990
EXTT0=
EXTT1=
EXTT2=
EXTT3=
EXTT4=
EXTT5=
EXTT6=
EXTT7=
EXTT8=
EXTT9=
PLAYORDER=
